<svg width="48" height="13" viewBox="0 0 48 13" fill="none" xmlns="http://www.w3.org/2000/svg">
<path d="M43.6842 9.814L43.3722 9.802L44.9442 4.762H46.1922L44.1162 10.75H43.0362L41.2242 5.626H41.5482L39.7122 10.75H38.6322L36.5802 4.762H37.8402L39.3642 9.802L39.0522 9.814L40.7082 4.762H42.0642L43.6842 9.814Z" fill="white"/>
<path d="M32.9341 10.882C32.3501 10.882 31.8141 10.758 31.3261 10.51C30.8381 10.262 30.4501 9.906 30.1621 9.442C29.8741 8.978 29.7301 8.422 29.7301 7.774C29.7301 7.118 29.8741 6.558 30.1621 6.094C30.4501 5.622 30.8381 5.262 31.3261 5.014C31.8141 4.766 32.3501 4.642 32.9341 4.642C33.5181 4.642 34.0501 4.766 34.5301 5.014C35.0101 5.262 35.3941 5.622 35.6821 6.094C35.9701 6.558 36.1141 7.118 36.1141 7.774C36.1141 8.422 35.9701 8.978 35.6821 9.442C35.3941 9.906 35.0101 10.262 34.5301 10.51C34.0501 10.758 33.5181 10.882 32.9341 10.882ZM32.9341 9.886C33.2941 9.886 33.6261 9.806 33.9301 9.646C34.2421 9.478 34.4901 9.238 34.6741 8.926C34.8661 8.606 34.9621 8.222 34.9621 7.774C34.9621 7.318 34.8661 6.93 34.6741 6.61C34.4901 6.29 34.2421 6.046 33.9301 5.878C33.6261 5.71 33.2941 5.626 32.9341 5.626C32.5741 5.626 32.2381 5.71 31.9261 5.878C31.6141 6.038 31.3621 6.278 31.1701 6.598C30.9781 6.918 30.8821 7.31 30.8821 7.774C30.8821 8.222 30.9741 8.606 31.1581 8.926C31.3501 9.238 31.6021 9.478 31.9141 9.646C32.2261 9.806 32.5661 9.886 32.9341 9.886Z" fill="white"/>
<path d="M27.2441 2.362H28.3961V10.75H27.2441V2.362Z" fill="white"/>
<path d="M24.2681 3.75V2H26.0181V3.75H24.2681ZM24.2681 10.75H22.5181V3.75H24.2681V5.5H26.0181V7.25H24.2681V10.75Z" fill="#3795FF"/>
<path d="M21.3147 2.29V3.526H19.8867V2.29H21.3147ZM20.0307 4.762H21.1707V10.75H20.0307V4.762Z" fill="white"/>
<path d="M14.9679 4.762H18.8439V5.758H14.9679V4.762ZM16.3359 3.178H17.4759V10.75H16.3359V3.178Z" fill="white"/>
<path d="M11.108 10.882C10.524 10.882 9.988 10.758 9.5 10.51C9.012 10.262 8.624 9.906 8.336 9.442C8.048 8.978 7.904 8.422 7.904 7.774C7.904 7.118 8.048 6.558 8.336 6.094C8.624 5.622 9.012 5.262 9.5 5.014C9.988 4.766 10.524 4.642 11.108 4.642C11.692 4.642 12.224 4.766 12.704 5.014C13.184 5.262 13.568 5.622 13.856 6.094C14.144 6.558 14.288 7.118 14.288 7.774C14.288 8.422 14.144 8.978 13.856 9.442C13.568 9.906 13.184 10.262 12.704 10.51C12.224 10.758 11.692 10.882 11.108 10.882ZM11.108 9.886C11.468 9.886 11.8 9.806 12.104 9.646C12.416 9.478 12.664 9.238 12.848 8.926C13.04 8.606 13.136 8.222 13.136 7.774C13.136 7.318 13.04 6.93 12.848 6.61C12.664 6.29 12.416 6.046 12.104 5.878C11.8 5.71 11.468 5.626 11.108 5.626C10.748 5.626 10.412 5.71 10.1 5.878C9.788 6.038 9.536 6.278 9.344 6.598C9.152 6.918 9.056 7.31 9.056 7.774C9.056 8.222 9.148 8.606 9.332 8.926C9.524 9.238 9.776 9.478 10.088 9.646C10.4 9.806 10.74 9.886 11.108 9.886Z" fill="white"/>
<path d="M3.625 10.75H2V4.25H5.25V5.875H3.625V10.75ZM6.875 10.75H5.25V5.875H6.875V10.75Z" fill="#3795FF"/>
</svg>
